  0
SECTION
  2
HEADER
  9
$ACADVER
  1
AC1018
  9
$ACADMAINTVER
 70
     0
  9
$DWGCODEPAGE
  3
ANSI_1252
  9
$LASTSAVEDBY
  1
adam
  9
$INSBASE
 10
0.0
 20
0.0
 30
0.0
  9
$EXTMIN
 10
-420.0
 20
0.0
 30
0.0
  9
$EXTMAX
 10
0.0000000000000568
 20
280.0
 30
0.0
  9
$LIMMIN
 10
0.0
 20
0.0
  9
$LIMMAX
 10
12.0
 20
9.0
  9
$ORTHOMODE
 70
     0
  9
$REGENMODE
 70
     1
  9
$FILLMODE
 70
     1
  9
$QTEXTMODE
 70
     0
  9
$MIRRTEXT
 70
     1
  9
$LTSCALE
 40
1.0
  9
$ATTMODE
 70
     1
  9
$TEXTSIZE
 40
0.2
  9
$TRACEWID
 40
0.05
  9
$TEXTSTYLE
  7
STANDARD
  9
$CLAYER
  8
0
  9
$CELTYPE
  6
BYBLOCK
  9
$CECOLOR
 62
   256
  9
$CELTSCALE
 40
1.0
  9
$DISPSILH
 70
     0
  9
$DIMSCALE
 40
1.0
  9
$DIMASZ
 40
0.18
  9
$DIMEXO
 40
0.0625
  9
$DIMDLI
 40
0.38
  9
$DIMRND
 40
0.0
  9
$DIMDLE
 40
0.0
  9
$DIMEXE
 40
0.18
  9
$DIMTP
 40
0.0
  9
$DIMTM
 40
0.0
  9
$DIMTXT
 40
0.18
  9
$DIMCEN
 40
0.09
  9
$DIMTSZ
 40
0.0
  9
$DIMTOL
 70
     0
  9
$DIMLIM
 70
     0
  9
$DIMTIH
 70
     1
  9
$DIMTOH
 70
     1
  9
$DIMSE1
 70
     0
  9
$DIMSE2
 70
     0
  9
$DIMTAD
 70
     0
  9
$DIMZIN
 70
     0
  9
$DIMBLK
  1

  9
$DIMASO
 70
     1
  9
$DIMSHO
 70
     1
  9
$DIMPOST
  1

  9
$DIMAPOST
  1

  9
$DIMALT
 70
     0
  9
$DIMALTD
 70
     2
  9
$DIMALTF
 40
25.4
  9
$DIMLFAC
 40
1.0
  9
$DIMTOFL
 70
     0
  9
$DIMTVP
 40
0.0
  9
$DIMTIX
 70
     0
  9
$DIMSOXD
 70
     0
  9
$DIMSAH
 70
     0
  9
$DIMBLK1
  1

  9
$DIMBLK2
  1

  9
$DIMSTYLE
  2
Standard
  9
$DIMCLRD
 70
     0
  9
$DIMCLRE
 70
     0
  9
$DIMCLRT
 70
     0
  9
$DIMTFAC
 40
1.0
  9
$DIMGAP
 40
0.09
  9
$DIMJUST
 70
     0
  9
$DIMSD1
 70
     0
  9
$DIMSD2
 70
     0
  9
$DIMTOLJ
 70
     1
  9
$DIMTZIN
 70
     0
  9
$DIMALTZ
 70
     0
  9
$DIMALTTZ
 70
     0
  9
$DIMUPT
 70
     0
  9
$DIMDEC
 70
     4
  9
$DIMTDEC
 70
     4
  9
$DIMALTU
 70
     2
  9
$DIMALTTD
 70
     2
  9
$DIMTXSTY
  7
STANDARD
  9
$DIMAUNIT
 70
     0
  9
$DIMADEC
 70
     0
  9
$DIMALTRND
 40
0.0
  9
$DIMAZIN
 70
     0
  9
$DIMDSEP
 70
    46
  9
$DIMATFIT
 70
     3
  9
$DIMFRAC
 70
     0
  9
$DIMLDRBLK
  1

  9
$DIMLUNIT
 70
     2
  9
$DIMLWD
 70
    -2
  9
$DIMLWE
 70
    -2
  9
$DIMTMOVE
 70
     2
  9
$LUNITS
 70
     2
  9
$LUPREC
 70
     4
  9
$SKETCHINC
 40
0.1
  9
$FILLETRAD
 40
0.5
  9
$AUNITS
 70
     0
  9
$AUPREC
 70
     0
  9
$MENU
  1
.
  9
$ELEVATION
 40
0.0
  9
$PELEVATION
 40
0.0
  9
$THICKNESS
 40
0.0
  9
$LIMCHECK
 70
     0
  9
$CHAMFERA
 40
0.0
  9
$CHAMFERB
 40
0.0
  9
$CHAMFERC
 40
0.0
  9
$CHAMFERD
 40
0.0
  9
$SKPOLY
 70
     0
  9
$TDCREATE
 40
0.0
  9
$TDUCREATE
 40
0.0
  9
$TDUPDATE
 40
2457767.900833333
  9
$TDUUPDATE
 40
2457768.234166667
  9
$TDINDWG
 40
0.0
  9
$TDUSRTIMER
 40
2457768.202662037
  9
$USRTIMER
 70
     1
  9
$ANGBASE
 50
0.0
  9
$ANGDIR
 70
     0
  9
$PDMODE
 70
     0
  9
$PDSIZE
 40
0.0
  9
$PLINEWID
 40
0.0
  9
$SPLFRAME
 70
     0
  9
$SPLINETYPE
 70
     6
  9
$SPLINESEGS
 70
     8
  9
$HANDSEED
  5
10362
  9
$SURFTAB1
 70
     6
  9
$SURFTAB2
 70
     6
  9
$SURFTYPE
 70
     6
  9
$SURFU
 70
     6
  9
$SURFV
 70
     6
  9
$UCSBASE
  2

  9
$UCSNAME
  2

  9
$UCSORG
 10
0.0
 20
0.0
 30
0.0
  9
$UCSXDIR
 10
1.0
 20
0.0
 30
0.0
  9
$UCSYDIR
 10
0.0
 20
1.0
 30
0.0
  9
$UCSORTHOREF
  2

  9
$UCSORTHOVIEW
 70
     0
  9
$UCSORGTOP
 10
0.0
 20
0.0
 30
0.0
  9
$UCSORGBOTTOM
 10
0.0
 20
0.0
 30
0.0
  9
$UCSORGLEFT
 10
0.0
 20
0.0
 30
0.0
  9
$UCSORGRIGHT
 10
0.0
 20
0.0
 30
0.0
  9
$UCSORGFRONT
 10
0.0
 20
0.0
 30
0.0
  9
$UCSORGBACK
 10
0.0
 20
0.0
 30
0.0
  9
$PUCSBASE
  2

  9
$PUCSNAME
  2

  9
$PUCSORG
 10
0.0
 20
0.0
 30
0.0
  9
$PUCSXDIR
 10
1.0
 20
0.0
 30
0.0
  9
$PUCSYDIR
 10
0.0
 20
1.0
 30
0.0
  9
$PUCSORTHOREF
  2

  9
$PUCSORTHOVIEW
 70
     0
  9
$PUCSORGTOP
 10
0.0
 20
0.0
 30
0.0
  9
$PUCSORGBOTTOM
 10
0.0
 20
0.0
 30
0.0
  9
$PUCSORGLEFT
 10
0.0
 20
0.0
 30
0.0
  9
$PUCSORGRIGHT
 10
0.0
 20
0.0
 30
0.0
  9
$PUCSORGFRONT
 10
0.0
 20
0.0
 30
0.0
  9
$PUCSORGBACK
 10
0.0
 20
0.0
 30
0.0
  9
$USERI1
 70
     0
  9
$USERI2
 70
     0
  9
$USERI3
 70
     0
  9
$USERI4
 70
     0
  9
$USERI5
 70
     0
  9
$USERR1
 40
0.0
  9
$USERR2
 40
0.0
  9
$USERR3
 40
0.0
  9
$USERR4
 40
0.0
  9
$USERR5
 40
0.0
  9
$WORLDVIEW
 70
     1
  9
$SHADEDGE
 70
     3
  9
$SHADEDIF
 70
    70
  9
$TILEMODE
 70
     1
  9
$MAXACTVP
 70
    64
  9
$PINSBASE
 10
0.0
 20
0.0
 30
0.0
  9
$PLIMCHECK
 70
     0
  9
$PEXTMIN
 10
1.000000000000000E+20
 20
1.000000000000000E+20
 30
1.000000000000000E+20
  9
$PEXTMAX
 10
-1.000000000000000E+20
 20
-1.000000000000000E+20
 30
-1.000000000000000E+20
  9
$PLIMMIN
 10
0.0
 20
0.0
  9
$PLIMMAX
 10
0.0
 20
0.0
  9
$UNITMODE
 70
     0
  9
$VISRETAIN
 70
     1
  9
$PLINEGEN
 70
     0
  9
$PSLTSCALE
 70
     1
  9
$TREEDEPTH
 70
  3020
  9
$CMLSTYLE
  2

  9
$CMLJUST
 70
     0
  9
$CMLSCALE
 40
1.0
  9
$PROXYGRAPHICS
 70
     1
  9
$MEASUREMENT
 70
     0
  9
$CELWEIGHT
370
    -1
  9
$ENDCAPS
280
     0
  9
$JOINSTYLE
280
     0
  9
$LWDISPLAY
290
     0
  9
$INSUNITS
 70
     4
  9
$HYPERLINKBASE
  1

  9
$STYLESHEET
  1

  9
$XEDIT
290
     1
  9
$CEPSNTYPE
380
     0
  9
$PSTYLEMODE
290
     1
  9
$FINGERPRINTGUID
  2
{5076BDAF-90F6-3E91-F07E-44B366BFA68A}
  9
$VERSIONGUID
  2
{FAEB1C32-E019-11D5-929B-00C0DF256EC4}
  9
$EXTNAMES
290
     1
  9
$PSVPSCALE
 40
0.0
  9
$OLESTARTUP
290
     0
  9
$SORTENTS
280
   127
  9
$INDEXCTL
280
     0
  9
$HIDETEXT
280
     1
  9
$XCLIPFRAME
290
     0
  9
$HALOGAP
280
     0
  9
$OBSCOLOR
 70
   257
  9
$OBSLTYPE
280
     0
  9
$INTERSECTIONDISPLAY
280
     0
  9
$INTERSECTIONCOLOR
 70
   257
  9
$DIMASSOC
280
     2
  9
$PROJECTNAME
  1

  0
ENDSEC
  0
SECTION
  2
CLASSES
  0
CLASS
  1
SCALE
  2
AcDbScale
  3
ObjectDBX Classes
 90
     1153
 91
        6
280
     0
281
     0
  0
CLASS
  1
MATERIAL
  2
AcDbMaterial
  3
ObjectDBX Classes
 90
     1153
 91
        6
280
     0
281
     0
  0
CLASS
  1
VISUALSTYLE
  2
AcDbVisualStyle
  3
ObjectDBX Classes
 90
     4095
 91
        6
280
     0
281
     0
  0
CLASS
  1
TABLESTYLE
  2
AcDbTableStyle
  3
ObjectDBX Classes
 90
     4095
 91
        6
280
     0
281
     0
  0
CLASS
  1
MLEADERSTYLE
  2
AcDbMLeaderStyle
  3
ACDB_MLEADERSTYLE_CLASS
 90
     4095
 91
        6
280
     0
281
     0
  0
CLASS
  1
SUN
  2
AcDbSun
  3
SCENEOE
 90
     1153
 91
        6
280
     0
281
     0
  0
CLASS
  1
RASTERVARIABLES
  2
AcDbRasterVariables
  3
ISM
 90
        0
 91
        6
280
     0
281
     0
  0
CLASS
  1
DIMASSOC
  2
AcDbDimAssoc
  3
"AcDbDimAssoc|Product Desc:     AcDim ARX App For Dimension|Company:          Autodesk, Inc.|WEB Address:      www.autodesk.com"
 90
        0
 91
        5
280
     0
281
     0
  0
CLASS
  1
DICTIONARYVAR
  2
AcDbDictionaryVar
  3
ObjectDBX Classes
 90
        0
 91
        6
280
     0
281
     0
  0
CLASS
  1
CELLSTYLEMAP
  2
AcDbCellStyleMap
  3
ObjectDBX Classes
 90
     1152
 91
        6
280
     0
281
     0
  0
ENDSEC
  0
SECTION
  2
TABLES
  0
TABLE
  2
VPORT
  5
8
330
0
100
AcDbSymbolTable
 70
     1
  0
VPORT
  5
10001
330
8
100
AcDbSymbolTableRecord
100
AcDbViewportTableRecord
  2
*Active
 70
     0
 10
0.0
 20
0.0
 11
1.0
 21
1.0
 12
-121.5702925022093
 22
-17.31586726622258
 13
0.0
 23
0.0
 14
0.5
 24
0.5
 15
0.5
 25
0.5
 16
0.0
 26
0.0
 36
1.0
 17
0.0
 27
0.0
 37
0.0
 40
825.3987173956212
 41
1.671462829736211
 42
50.0
 43
0.0
 44
0.0
 50
0.0
 51
0.0
 71
    16
 72
   100
 73
     1
 74
     3
 75
     0
 76
     0
 77
     0
 78
     0
281
     0
 65
     1
110
0.0
120
0.0
130
0.0
111
1.0
121
0.0
131
0.0
112
0.0
122
1.0
132
0.0
 79
     0
146
0.0
  0
ENDTAB
  0
TABLE
  2
LTYPE
  5
5
330
0
100
AcDbSymbolTable
 70
     1
  0
LTYPE
  5
14
330
5
100
AcDbSymbolTableRecord
100
AcDbLinetypeTableRecord
  2
BYBLOCK
 70
     0
  3

 72
    65
 73
     0
 40
0.0
  0
LTYPE
  5
15
330
5
100
AcDbSymbolTableRecord
100
AcDbLinetypeTableRecord
  2
BYLAYER
 70
     0
  3

 72
    65
 73
     0
 40
0.0
  0
LTYPE
  5
FFFF
330
5
100
AcDbSymbolTableRecord
100
AcDbLinetypeTableRecord
  2
Continuous
 70
     0
  3
Solid line
 72
    65
 73
     0
 40
0.0
  0
ENDTAB
  0
TABLE
  2
LAYER
  5
2
330
0
100
AcDbSymbolTable
 70
     2
  0
LAYER
  5
50
330
2
100
AcDbSymbolTableRecord
100
AcDbLayerTableRecord
  2
0
 70
     0
 62
     7
  6
Continuous
370
    -3
390
0
  0
LAYER
  5
1004C
330
2
100
AcDbSymbolTableRecord
100
AcDbLayerTableRecord
  2
Defpoints
 70
     0
 62
     7
  6
Continuous
290
     0
370
    -3
390
0
  0
ENDTAB
  0
TABLE
  2
STYLE
  5
3
330
0
100
AcDbSymbolTable
 70
     1
  0
STYLE
  5
11
330
3
100
AcDbSymbolTableRecord
100
AcDbTextStyleTableRecord
  2
STANDARD
 70
     0
 40
0.2
 41
1.0
 50
0.0
 71
     0
 42
0.2
  3

  4

  0
ENDTAB
  0
TABLE
  2
VIEW
  5
6
330
0
100
AcDbSymbolTable
 70
     0
  0
ENDTAB
  0
TABLE
  2
UCS
  5
7
330
0
100
AcDbSymbolTable
 70
     0
  0
ENDTAB
  0
TABLE
  2
APPID
  5
9
330
0
100
AcDbSymbolTable
 70
     2
  0
APPID
  5
12
330
9
100
AcDbSymbolTableRecord
100
AcDbRegAppTableRecord
  2
ACAD
 70
     0
  0
APPID
  5
100A9
330
9
100
AcDbSymbolTableRecord
100
AcDbRegAppTableRecord
  2
ACAD_MLEADERVER
 70
     0
  0
ENDTAB
  0
TABLE
  2
DIMSTYLE
  5
A
330
0
100
AcDbSymbolTable
 70
     1
100
AcDbDimStyleTable
  0
DIMSTYLE
105
10000
330
A
100
AcDbSymbolTableRecord
100
AcDbDimStyleTableRecord
  2
Standard
 70
     0
178
     0
340
11
  0
ENDTAB
  0
TABLE
  2
BLOCK_RECORD
  5
1
330
0
100
AcDbSymbolTable
 70
     4
  0
BLOCK_RECORD
  5
1F
330
1
100
AcDbSymbolTableRecord
100
AcDbBlockTableRecord
  2
*MODEL_SPACE
340
10026
  0
BLOCK_RECORD
  5
1B
330
1
100
AcDbSymbolTableRecord
100
AcDbBlockTableRecord
  2
*PAPER_SPACE
340
10027
  0
BLOCK_RECORD
  5
1033B
330
1
100
AcDbSymbolTableRecord
100
AcDbBlockTableRecord
  2
*D2
340
0
  0
BLOCK_RECORD
  5
1034B
330
1
100
AcDbSymbolTableRecord
100
AcDbBlockTableRecord
  2
*D3
340
0
  0
ENDTAB
  0
ENDSEC
  0
SECTION
  2
BLOCKS
  0
BLOCK
  5
20
330
1F
100
AcDbEntity
  8
0
100
AcDbBlockBegin
  2
*MODEL_SPACE
 70
     0
 10
0.0
 20
0.0
 30
0.0
  3
*MODEL_SPACE
  1
*MODEL_SPACE
  0
ENDBLK
  5
21
330
1F
100
AcDbEntity
  8
0
100
AcDbBlockEnd
  0
BLOCK
  5
1C
330
1B
100
AcDbEntity
 67
     1
  8
0
100
AcDbBlockBegin
  2
*PAPER_SPACE
 70
     0
 10
0.0
 20
0.0
 30
0.0
  3
*PAPER_SPACE
  1
*PAPER_SPACE
  0
ENDBLK
  5
1D
330
1B
100
AcDbEntity
 67
     1
  8
0
100
AcDbBlockEnd
  0
BLOCK
  5
1033C
330
1033B
100
AcDbEntity
  8
0
100
AcDbBlockBegin
  2
*D2
 70
     1
 10
0.0
 20
0.0
 30
0.0
  3
*D2
  1
*D2
  0
LINE
  5
1033E
330
1033B
100
AcDbEntity
  8
0
  6
ByBlock
 62
     0
370
    -2
100
AcDbLine
 10
-314.1121237658651
 20
117.3219306445634
 30
0.0
 11
-294.7453477042162
 21
117.3219306445634
 31
0.0
  0
LINE
  5
1033F
330
1033B
100
AcDbEntity
  8
0
  6
ByBlock
 62
     0
370
    -2
100
AcDbLine
 10
-314.1121237658651
 20
140.0
 30
0.0
 11
-294.7453477042162
 21
140.0
 31
0.0
  0
LINE
  5
10340
330
1033B
100
AcDbEntity
  8
0
  6
ByBlock
 62
     0
370
    -2
100
AcDbLine
 10
-294.9253477042162
 20
117.5019306445634
 30
0.0
 11
-294.9253477042162
 21
128.4709653222817
 31
0.0
  0
LINE
  5
10341
330
1033B
100
AcDbEntity
  8
0
  6
ByBlock
 62
     0
370
    -2
100
AcDbLine
 10
-294.9253477042162
 20
139.82
 30
0.0
 11
-294.9253477042162
 21
128.8509653222817
 31
0.0
  0
SOLID
  5
10342
330
1033B
100
AcDbEntity
  8
0
 62
     0
100
AcDbTrace
 10
-294.9553477042161
 20
117.5019306445634
 30
0.0
 11
-294.8953477042162
 21
117.5019306445634
 31
0.0
 12
-294.9253477042162
 22
117.3219306445634
 32
0.0
 13
-294.9253477042162
 23
117.3219306445634
 33
0.0
  0
SOLID
  5
10343
330
1033B
100
AcDbEntity
  8
0
 62
     0
100
AcDbTrace
 10
-294.8953477042162
 20
139.82
 30
0.0
 11
-294.9553477042161
 21
139.82
 31
0.0
 12
-294.9253477042162
 22
140.0
 32
0.0
 13
-294.9253477042162
 23
140.0
 33
0.0
  0
MTEXT
  5
10344
330
1033B
100
AcDbEntity
  8
0
  6
ByBlock
 62
     0
100
AcDbMText
 10
-294.9253477042162
 20
128.6609653222817
 30
0.0
 40
0.2
 41
0.0
 71
     5
 72
     1
  1
\A1;22.6781
 73
     1
 44
1.0
  0
POINT
  5
10345
330
1033B
100
AcDbEntity
  8
Defpoints
 62
     0
100
AcDbPoint
 10
-314.1746237658651
 20
117.3219306445634
 30
0.0
  0
POINT
  5
10346
330
1033B
100
AcDbEntity
  8
Defpoints
 62
     0
100
AcDbPoint
 10
-314.1746237658651
 20
140.0
 30
0.0
  0
POINT
  5
10347
330
1033B
100
AcDbEntity
  8
Defpoints
 62
     0
100
AcDbPoint
 10
-294.9253477042162
 20
140.0
 30
0.0
  0
ENDBLK
  5
1033D
330
1033B
100
AcDbEntity
  8
0
100
AcDbBlockEnd
  0
BLOCK
  5
1034C
330
1034B
100
AcDbEntity
  8
0
100
AcDbBlockBegin
  2
*D3
 70
     1
 10
0.0
 20
0.0
 30
0.0
  3
*D3
  1
*D3
  0
LINE
  5
1034E
330
1034B
100
AcDbEntity
  8
0
  6
ByBlock
 62
     0
370
    -2
100
AcDbLine
 10
-314.1121237658653
 20
17.32193064456342
 30
0.0
 11
-306.2580302238923
 21
17.32193064456342
 31
0.0
  0
LINE
  5
1034F
330
1034B
100
AcDbEntity
  8
0
  6
ByBlock
 62
     0
370
    -2
100
AcDbLine
 10
-314.1121237658653
 20
0.0000000000000202
 30
0.0
 11
-306.2580302238923
 21
0.0000000000000197
 31
0.0
  0
LINE
  5
10350
330
1034B
100
AcDbEntity
  8
0
  6
ByBlock
 62
     0
370
    -2
100
AcDbLine
 10
-306.4380302238923
 20
17.14193064456342
 30
0.0
 11
-306.4380302238923
 21
8.850965322281722
 31
0.0
  0
LINE
  5
10351
330
1034B
100
AcDbEntity
  8
0
  6
ByBlock
 62
     0
370
    -2
100
AcDbLine
 10
-306.4380302238923
 20
0.1800000000000198
 30
0.0
 11
-306.4380302238923
 21
8.470965322281723
 31
0.0
  0
SOLID
  5
10352
330
1034B
100
AcDbEntity
  8
0
 62
     0
100
AcDbTrace
 10
-306.4080302238924
 20
17.14193064456342
 30
0.0
 11
-306.4680302238923
 21
17.14193064456342
 31
0.0
 12
-306.4380302238923
 22
17.32193064456342
 32
0.0
 13
-306.4380302238923
 23
17.32193064456342
 33
0.0
  0
SOLID
  5
10353
330
1034B
100
AcDbEntity
  8
0
 62
     0
100
AcDbTrace
 10
-306.4680302238923
 20
0.1800000000000198
 30
0.0
 11
-306.4080302238924
 21
0.1800000000000198
 31
0.0
 12
-306.4380302238923
 22
0.0000000000000198
 32
0.0
 13
-306.4380302238923
 23
0.0000000000000198
 33
0.0
  0
MTEXT
  5
10354
330
1034B
100
AcDbEntity
  8
0
  6
ByBlock
 62
     0
100
AcDbMText
 10
-306.4380302238923
 20
8.660965322281722
 30
0.0
 40
0.2
 41
0.0
 71
     5
 72
     1
  1
\A1;17.3219
 73
     1
 44
1.0
  0
POINT
  5
10355
330
1034B
100
AcDbEntity
  8
Defpoints
 62
     0
100
AcDbPoint
 10
-314.1746237658653
 20
17.32193064456342
 30
0.0
  0
POINT
  5
10356
330
1034B
100
AcDbEntity
  8
Defpoints
 62
     0
100
AcDbPoint
 10
-314.1746237658653
 20
0.0000000000000202
 30
0.0
  0
POINT
  5
10357
330
1034B
100
AcDbEntity
  8
Defpoints
 62
     0
100
AcDbPoint
 10
-306.4380302238923
 20
0.0000000000000198
 30
0.0
  0
ENDBLK
  5
1034D
330
1034B
100
AcDbEntity
  8
0
100
AcDbBlockEnd
  0
ENDSEC
  0
SECTION
  2
ENTITIES
  0
LWPOLYLINE
  5
100
330
1F
100
AcDbEntity
  8
0
100
AcDbPolyline
 90
        6
 70
     1
 43
0.0
 10
-110.0773991805305
 20
9.520725942163702
 10
-111.8273991805305
 20
8.510362971081854
 10
-111.8273991805305
 20
6.489637028918155
 10
-110.0773991805305
 20
5.479274057836307
 10
-108.3273991805305
 20
6.489637028918156
 10
-108.3273991805305
 20
8.510362971081854
  0
LWPOLYLINE
  5
101
330
1F
100
AcDbEntity
  8
0
100
AcDbPolyline
 90
        6
 70
     1
 43
0.0
 10
-90.23398014666566
 20
134.5207259421637
 10
-91.98398014666564
 20
133.5103629710818
 10
-91.98398014666564
 20
131.4896370289182
 10
-90.23398014666566
 20
130.4792740578363
 10
-88.48398014666566
 20
131.4896370289182
 10
-88.48398014666566
 20
133.5103629710818
  0
LWPOLYLINE
  5
102
330
1F
100
AcDbEntity
  8
0
100
AcDbPolyline
 90
        6
 70
     1
 43
0.0
 10
-90.23398014666566
 20
9.520725942163693
 10
-91.98398014666566
 20
8.510362971081848
 10
-91.98398014666566
 20
6.48963702891816
 10
-90.23398014666566
 20
5.479274057836316
 10
-88.48398014666566
 20
6.48963702891816
 10
-88.48398014666566
 20
8.510362971081848
  0
LWPOLYLINE
  5
103
330
1F
100
AcDbEntity
  8
0
100
AcDbPolyline
 90
        6
 70
     1
 43
0.0
 10
-110.0773991805305
 20
134.5207259421637
 10
-111.8273991805305
 20
133.5103629710818
 10
-111.8273991805305
 20
131.4896370289181
 10
-110.0773991805305
 20
130.4792740578363
 10
-108.3273991805305
 20
131.4896370289182
 10
-108.3273991805305
 20
133.5103629710819
  0
CIRCLE
  5
116
330
1F
100
AcDbEntity
  8
0
100
AcDbCircle
 10
-72.99999999999997
 20
25.49999999999999
 30
0.0
 40
2.999999999999998
  0
CIRCLE
  5
117
330
1F
100
AcDbEntity
  8
0
100
AcDbCircle
 10
-410.0
 20
124.5
 30
0.0
 40
2.999999999999972
  0
CIRCLE
  5
118
330
1F
100
AcDbEntity
  8
0
100
AcDbCircle
 10
-72.99999999999997
 20
114.5
 30
0.0
 40
3.000000000000007
  0
CIRCLE
  5
119
330
1F
100
AcDbEntity
  8
0
100
AcDbCircle
 10
-410.0
 20
15.49999999999999
 30
0.0
 40
2.999999999999972
  0
CIRCLE
  5
120
330
1F
100
AcDbEntity
  8
0
100
AcDbCircle
 10
-344.157
 20
132.5
 30
0.0
 40
1.749999999999972
  0
CIRCLE
  5
121
330
1F
100
AcDbEntity
  8
0
100
AcDbCircle
 10
-364.0
 20
132.5
 30
0.0
 40
1.749999999999972
  0
CIRCLE
  5
122
330
1F
100
AcDbEntity
  8
0
100
AcDbCircle
 10
-364.0
 20
7.5
 30
0.0
 40
1.749999999999972
  0
CIRCLE
  5
123
330
1F
100
AcDbEntity
  8
0
100
AcDbCircle
 10
-344.157
 20
7.5
 30
0.0
 40
1.749999999999972
  0
LWPOLYLINE
  5
10096
330
1F
100
AcDbEntity
  8
0
100
AcDbPolyline
 90
        6
 70
     1
 43
0.0
 10
-88.4839801466656
 20
271.489637028918
 10
-88.4839801466656
 20
273.5103629710817
 10
-90.2339801466656
 20
274.5207259421635
 10
-91.9839801466656
 20
273.5103629710817
 10
-91.9839801466656
 20
271.489637028918
 10
-90.2339801466656
 20
270.4792740578362
  0
CIRCLE
  5
10097
330
1F
100
AcDbEntity
  8
0
100
AcDbCircle
 10
-344.157
 20
147.5
 30
0.0
 40
1.749999999999972
  0
CIRCLE
  5
10098
330
1F
100
AcDbEntity
  8
0
100
AcDbCircle
 10
-344.157
 20
272.5
 30
0.0
 40
1.749999999999972
  0
LWPOLYLINE
  5
1009A
330
1F
100
AcDbEntity
  8
0
100
AcDbPolyline
 90
        6
 70
     1
 43
0.0
 10
-88.48398014666566
 20
146.489637028918
 10
-88.48398014666566
 20
148.5103629710817
 10
-90.23398014666566
 20
149.5207259421636
 10
-91.98398014666566
 20
148.5103629710817
 10
-91.98398014666566
 20
146.489637028918
 10
-90.23398014666566
 20
145.4792740578362
  0
CIRCLE
  5
1009B
330
1F
100
AcDbEntity
  8
0
100
AcDbCircle
 10
-410.0
 20
155.5
 30
0.0
 40
6.499999999999986
  0
LWPOLYLINE
  5
1009D
330
1F
100
AcDbEntity
  8
0
100
AcDbPolyline
 90
        6
 70
     1
 43
0.0
 10
-108.3273991805304
 20
146.489637028918
 10
-108.3273991805304
 20
148.5103629710817
 10
-110.0773991805304
 20
149.5207259421636
 10
-111.8273991805304
 20
148.5103629710817
 10
-111.8273991805304
 20
146.489637028918
 10
-110.0773991805304
 20
145.4792740578362
  0
CIRCLE
  5
1009E
330
1F
100
AcDbEntity
  8
0
100
AcDbCircle
 10
-363.9999999999999
 20
272.5
 30
0.0
 40
1.749999999999972
  0
CIRCLE
  5
1009F
330
1F
100
AcDbEntity
  8
0
100
AcDbCircle
 10
-409.9999999999999
 20
264.5
 30
0.0
 40
6.499999999999986
  0
CIRCLE
  5
100A0
330
1F
100
AcDbEntity
  8
0
100
AcDbCircle
 10
-364.0
 20
147.5
 30
0.0
 40
1.749999999999972
  0
LWPOLYLINE
  5
100A2
330
1F
100
AcDbEntity
  8
0
100
AcDbPolyline
 90
        6
 70
     1
 43
0.0
 10
-108.3273991805304
 20
271.4896370289181
 10
-108.3273991805304
 20
273.5103629710817
 10
-110.0773991805304
 20
274.5207259421636
 10
-111.8273991805304
 20
273.5103629710817
 10
-111.8273991805304
 20
271.4896370289181
 10
-110.0773991805304
 20
270.4792740578363
  0
LWPOLYLINE
  5
100A3
102
{ACAD_REACTORS
102
}
330
1F
100
AcDbEntity
  8
0
100
AcDbPolyline
 90
        8
 70
     1
 43
0.0
 10
-409.9999999999999
 20
280.0
 10
-9.999999999999943
 20
279.9999999999999
 42
-0.4142135623730949
 10
0.0000000000000568
 20
269.9999999999999
 10
0.0
 20
149.9999999999999
 42
-0.4142135623730952
 10
-10.0
 20
139.9999999999999
 10
-410.0
 20
140.0
 42
-0.4142135623730945
 10
-420.0
 20
150.0
 10
-419.9999999999999
 20
270.0
 42
-0.4142135623730944
  0
ARC
  5
100CA
330
1F
100
AcDbEntity
  8
0
100
AcDbCircle
 10
-410.0
 20
10.00000000000003
 30
0.0
 40
10.0
100
AcDbArc
 50
180.0000000000002
 51
270.0
  0
LINE
  5
100CB
330
1F
100
AcDbEntity
  8
0
100
AcDbLine
 10
-420.0
 20
10.0
 30
0.0
 11
-420.0
 21
130.0
 31
0.0
  0
ARC
  5
100CC
330
1F
100
AcDbEntity
  8
0
100
AcDbCircle
 10
-410.0
 20
130.0
 30
0.0
 40
10.00000000000001
100
AcDbArc
 50
90.00000000000006
 51
179.9999999999999
  0
ARC
  5
100CE
330
1F
100
AcDbEntity
  8
0
100
AcDbCircle
 10
-9.999999999999998
 20
130.0
 30
0.0
 40
9.999999999999998
100
AcDbArc
 50
360.0
 51
90.0
  0
LINE
  5
100CF
330
1F
100
AcDbEntity
  8
0
100
AcDbLine
 10
0.0
 20
130.0
 30
0.0
 11
0.0
 21
10.0
 31
0.0
  0
ARC
  5
100D0
330
1F
100
AcDbEntity
  8
0
100
AcDbCircle
 10
-10.0
 20
10.0
 30
0.0
 40
10.0
100
AcDbArc
 50
270.0
 51
0.0
  0
LINE
  5
100D1
102
{ACAD_REACTORS
102
}
330
1F
100
AcDbEntity
  8
0
100
AcDbLine
 10
-10.0
 20
0.0
 30
0.0
 11
-410.0
 21
0.0000000000000266
 31
0.0
  0
CIRCLE
  5
10109
330
1F
100
AcDbEntity
  8
0
  6
ByBlock
100
AcDbCircle
 10
-246.9797979797979
 20
187.5
 30
0.0
 40
1.25
  0
CIRCLE
  5
1010A
330
1F
100
AcDbEntity
  8
0
  6
ByBlock
100
AcDbCircle
 10
-201.9797979797979
 20
187.5
 30
0.0
 40
1.25
  0
CIRCLE
  5
1010B
330
1F
100
AcDbEntity
  8
0
  6
ByBlock
100
AcDbCircle
 10
-201.9797979797979
 20
232.5
 30
0.0
 40
1.25
  0
CIRCLE
  5
1010C
330
1F
100
AcDbEntity
  8
0
  6
ByBlock
100
AcDbCircle
 10
-246.9797979797979
 20
232.5
 30
0.0
 40
1.25
  0
ARC
  5
102C1
330
1F
100
AcDbEntity
  8
0
  6
ByBlock
100
AcDbCircle
 10
-98.0
 20
34.12500000000001
 30
0.0
 40
5.0
100
AcDbArc
 50
270.0
 51
90.0
  0
ARC
  5
102C2
330
1F
100
AcDbEntity
  8
0
  6
ByBlock
100
AcDbCircle
 10
-98.0
 20
105.875
 30
0.0
 40
5.0
100
AcDbArc
 50
270.0
 51
90.0
  0
LINE
  5
102C9
330
1F
100
AcDbEntity
  8
0
100
AcDbLine
 10
-139.3646027381781
 20
93.125
 30
0.0
 11
-88.0
 21
93.12500000000001
 31
0.0
  0
ARC
  5
102CA
330
1F
100
AcDbEntity
  8
0
100
AcDbCircle
 10
-88.0
 20
94.5
 30
0.0
 40
1.374999999999993
100
AcDbArc
 50
270.0
 51
90.0
  0
LINE
  5
102CB
330
1F
100
AcDbEntity
  8
0
100
AcDbLine
 10
-88.0
 20
95.875
 30
0.0
 11
-139.3646027381781
 21
95.875
 31
0.0
  0
ARC
  5
102CC
330
1F
100
AcDbEntity
  8
0
100
AcDbCircle
 10
-139.3646027381781
 20
94.5
 30
0.0
 40
1.374999999999993
100
AcDbArc
 50
90.0
 51
270.0
  0
LINE
  5
102CD
330
1F
100
AcDbEntity
  8
0
100
AcDbLine
 10
-81.36460273817815
 20
93.125
 30
0.0
 11
-30.0
 21
93.12500000000001
 31
0.0
  0
ARC
  5
102CE
330
1F
100
AcDbEntity
  8
0
100
AcDbCircle
 10
-30.0
 20
94.5
 30
0.0
 40
1.374999999999993
100
AcDbArc
 50
270.0
 51
90.0
  0
LINE
  5
102CF
330
1F
100
AcDbEntity
  8
0
100
AcDbLine
 10
-30.0
 20
95.875
 30
0.0
 11
-81.36460273817815
 21
95.875
 31
0.0
  0
ARC
  5
102D0
330
1F
100
AcDbEntity
  8
0
100
AcDbCircle
 10
-81.36460273817815
 20
94.5
 30
0.0
 40
1.374999999999993
100
AcDbArc
 50
90.0
 51
270.0
  0
LINE
  5
102D1
330
1F
100
AcDbEntity
  8
0
100
AcDbLine
 10
-81.36460273817815
 20
44.12500000000001
 30
0.0
 11
-30.0
 21
44.12500000000001
 31
0.0
  0
ARC
  5
102D2
330
1F
100
AcDbEntity
  8
0
100
AcDbCircle
 10
-30.0
 20
45.50000000000001
 30
0.0
 40
1.375
100
AcDbArc
 50
270.0
 51
90.0
  0
LINE
  5
102D3
330
1F
100
AcDbEntity
  8
0
100
AcDbLine
 10
-30.0
 20
46.87500000000001
 30
0.0
 11
-81.36460273817815
 21
46.87500000000001
 31
0.0
  0
ARC
  5
102D4
330
1F
100
AcDbEntity
  8
0
100
AcDbCircle
 10
-81.36460273817815
 20
45.50000000000001
 30
0.0
 40
1.375
100
AcDbArc
 50
90.0
 51
270.0
  0
LINE
  5
102D5
330
1F
100
AcDbEntity
  8
0
100
AcDbLine
 10
-139.3646027381781
 20
44.12500000000002
 30
0.0
 11
-88.0
 21
44.12500000000001
 31
0.0
  0
ARC
  5
102D6
330
1F
100
AcDbEntity
  8
0
100
AcDbCircle
 10
-88.0
 20
45.50000000000001
 30
0.0
 40
1.375
100
AcDbArc
 50
270.0
 51
90.0
  0
LINE
  5
102D7
330
1F
100
AcDbEntity
  8
0
100
AcDbLine
 10
-88.0
 20
46.87500000000001
 30
0.0
 11
-139.3646027381781
 21
46.87500000000002
 31
0.0
  0
ARC
  5
102D8
330
1F
100
AcDbEntity
  8
0
100
AcDbCircle
 10
-139.3646027381781
 20
45.50000000000002
 30
0.0
 40
1.375
100
AcDbArc
 50
90.0
 51
270.0
  0
ARC
  5
102D9
330
1F
100
AcDbEntity
  8
0
  6
ByBlock
100
AcDbCircle
 10
-121.3472099676663
 20
34.12500000000001
 30
0.0
 40
5.0
100
AcDbArc
 50
90.0
 51
270.0
  0
ARC
  5
102DA
330
1F
100
AcDbEntity
  8
0
  6
ByBlock
100
AcDbCircle
 10
-121.3472099676663
 20
105.875
 30
0.0
 40
5.0
100
AcDbArc
 50
90.0
 51
270.0
  0
LINE
  5
102DB
330
1F
100
AcDbEntity
  8
0
  6
ByBlock
100
AcDbLine
 10
-121.3472099676663
 20
100.875
 30
0.0
 11
-98.0
 21
100.875
 31
0.0
  0
LINE
  5
102DC
330
1F
100
AcDbEntity
  8
0
  6
ByBlock
100
AcDbLine
 10
-98.0
 20
110.875
 30
0.0
 11
-121.3472099676663
 21
110.875
 31
0.0
  0
LINE
  5
102DD
330
1F
100
AcDbEntity
  8
0
  6
ByBlock
100
AcDbLine
 10
-121.3472099676663
 20
39.12500000000001
 30
0.0
 11
-98.0
 21
39.12500000000001
 31
0.0
  0
LINE
  5
102DE
330
1F
100
AcDbEntity
  8
0
  6
ByBlock
100
AcDbLine
 10
-98.0
 20
29.12500000000001
 30
0.0
 11
-121.3472099676663
 21
29.12500000000001
 31
0.0
  0
CIRCLE
  5
102DF
330
1F
100
AcDbEntity
  8
0
  6
ByBlock
100
AcDbCircle
 10
-14.30000000000001
 20
62.5
 30
0.0
 40
1.6
  0
CIRCLE
  5
102E0
330
1F
100
AcDbEntity
  8
0
  6
ByBlock
100
AcDbCircle
 10
-14.30000000000001
 20
77.5
 30
0.0
 40
1.6
  0
CIRCLE
  5
102E1
330
1F
100
AcDbEntity
  8
0
  6
ByBlock
100
AcDbCircle
 10
-29.30000000000001
 20
62.5
 30
0.0
 40
1.6
  0
CIRCLE
  5
102E2
330
1F
100
AcDbEntity
  8
0
  6
ByBlock
100
AcDbCircle
 10
-29.30000000000001
 20
77.5
 30
0.0
 40
1.6
  0
CIRCLE
  5
102E3
330
1F
100
AcDbEntity
  8
0
  6
ByBlock
100
AcDbCircle
 10
-44.30000000000001
 20
62.5
 30
0.0
 40
1.6
  0
CIRCLE
  5
102E4
330
1F
100
AcDbEntity
  8
0
  6
ByBlock
100
AcDbCircle
 10
-44.30000000000001
 20
77.5
 30
0.0
 40
1.6
  0
CIRCLE
  5
102E5
330
1F
100
AcDbEntity
  8
0
  6
ByBlock
100
AcDbCircle
 10
-14.29999999999995
 20
202.5
 30
0.0
 40
1.6
  0
CIRCLE
  5
102E6
330
1F
100
AcDbEntity
  8
0
  6
ByBlock
100
AcDbCircle
 10
-14.29999999999995
 20
217.5
 30
0.0
 40
1.6
  0
CIRCLE
  5
102E7
330
1F
100
AcDbEntity
  8
0
  6
ByBlock
100
AcDbCircle
 10
-29.29999999999995
 20
202.5
 30
0.0
 40
1.6
  0
CIRCLE
  5
102E8
330
1F
100
AcDbEntity
  8
0
  6
ByBlock
100
AcDbCircle
 10
-29.29999999999995
 20
217.5
 30
0.0
 40
1.6
  0
CIRCLE
  5
102E9
330
1F
100
AcDbEntity
  8
0
  6
ByBlock
100
AcDbCircle
 10
-44.29999999999995
 20
202.5
 30
0.0
 40
1.6
  0
CIRCLE
  5
102EA
330
1F
100
AcDbEntity
  8
0
  6
ByBlock
100
AcDbCircle
 10
-44.29999999999995
 20
217.5
 30
0.0
 40
1.6
  0
LINE
  5
102EB
330
1F
100
AcDbEntity
  8
0
  6
ByBlock
100
AcDbLine
 10
-44.29999999999995
 20
217.5
 30
0.0
 11
-41.59999999999991
 21
217.5
 31
0.0
  0
LINE
  5
102EC
330
1F
100
AcDbEntity
  8
0
  6
ByBlock
100
AcDbLine
 10
-41.59999999999991
 20
217.5
 30
0.0
 11
-41.59999999999991
 21
220.2
 31
0.0
  0
LINE
  5
102ED
330
1F
100
AcDbEntity
  8
0
  6
ByBlock
100
AcDbLine
 10
-41.59999999999991
 20
220.2
 30
0.0
 11
-46.99999999999994
 21
220.2
 31
0.0
  0
LINE
  5
102EE
330
1F
100
AcDbEntity
  8
0
  6
ByBlock
100
AcDbLine
 10
-46.99999999999994
 20
220.2
 30
0.0
 11
-46.99999999999994
 21
214.8
 31
0.0
  0
LINE
  5
102EF
330
1F
100
AcDbEntity
  8
0
  6
ByBlock
100
AcDbLine
 10
-46.99999999999994
 20
214.8
 30
0.0
 11
-41.59999999999991
 21
214.8
 31
0.0
  0
LINE
  5
102F0
330
1F
100
AcDbEntity
  8
0
  6
ByBlock
100
AcDbLine
 10
-41.59999999999991
 20
214.8
 30
0.0
 11
-41.59999999999991
 21
217.5
 31
0.0
  0
LINE
  5
102F1
330
1F
100
AcDbEntity
  8
0
  6
ByBlock
100
AcDbLine
 10
-41.59999999999991
 20
199.8
 30
0.0
 11
-41.59999999999991
 21
202.5
 31
0.0
  0
LINE
  5
102F2
330
1F
100
AcDbEntity
  8
0
  6
ByBlock
100
AcDbLine
 10
-46.99999999999994
 20
199.8
 30
0.0
 11
-41.59999999999991
 21
199.8
 31
0.0
  0
LINE
  5
102F3
330
1F
100
AcDbEntity
  8
0
  6
ByBlock
100
AcDbLine
 10
-44.29999999999995
 20
202.5
 30
0.0
 11
-41.59999999999991
 21
202.5
 31
0.0
  0
LINE
  5
102F4
330
1F
100
AcDbEntity
  8
0
  6
ByBlock
100
AcDbLine
 10
-41.59999999999991
 20
202.5
 30
0.0
 11
-41.59999999999991
 21
205.2
 31
0.0
  0
LINE
  5
102F5
330
1F
100
AcDbEntity
  8
0
  6
ByBlock
100
AcDbLine
 10
-41.59999999999991
 20
205.2
 30
0.0
 11
-46.99999999999994
 21
205.2
 31
0.0
  0
LINE
  5
102F6
330
1F
100
AcDbEntity
  8
0
  6
ByBlock
100
AcDbLine
 10
-46.99999999999994
 20
205.2
 30
0.0
 11
-46.99999999999994
 21
199.8
 31
0.0
  0
LINE
  5
102F7
330
1F
100
AcDbEntity
  8
0
  6
ByBlock
100
AcDbLine
 10
-26.59999999999991
 20
199.8
 30
0.0
 11
-26.59999999999991
 21
202.5
 31
0.0
  0
LINE
  5
102F8
330
1F
100
AcDbEntity
  8
0
  6
ByBlock
100
AcDbLine
 10
-31.99999999999994
 20
199.8
 30
0.0
 11
-26.59999999999991
 21
199.8
 31
0.0
  0
LINE
  5
102F9
330
1F
100
AcDbEntity
  8
0
  6
ByBlock
100
AcDbLine
 10
-29.29999999999995
 20
202.5
 30
0.0
 11
-26.59999999999991
 21
202.5
 31
0.0
  0
LINE
  5
102FA
330
1F
100
AcDbEntity
  8
0
  6
ByBlock
100
AcDbLine
 10
-26.59999999999991
 20
202.5
 30
0.0
 11
-26.59999999999991
 21
205.2
 31
0.0
  0
LINE
  5
102FB
330
1F
100
AcDbEntity
  8
0
  6
ByBlock
100
AcDbLine
 10
-26.59999999999991
 20
205.2
 30
0.0
 11
-31.99999999999994
 21
205.2
 31
0.0
  0
LINE
  5
102FC
330
1F
100
AcDbEntity
  8
0
  6
ByBlock
100
AcDbLine
 10
-31.99999999999994
 20
205.2
 30
0.0
 11
-31.99999999999994
 21
199.8
 31
0.0
  0
LINE
  5
102FD
330
1F
100
AcDbEntity
  8
0
  6
ByBlock
100
AcDbLine
 10
-26.59999999999991
 20
214.8
 30
0.0
 11
-26.59999999999991
 21
217.5
 31
0.0
  0
LINE
  5
102FE
330
1F
100
AcDbEntity
  8
0
  6
ByBlock
100
AcDbLine
 10
-31.99999999999994
 20
214.8
 30
0.0
 11
-26.59999999999991
 21
214.8
 31
0.0
  0
LINE
  5
102FF
330
1F
100
AcDbEntity
  8
0
  6
ByBlock
100
AcDbLine
 10
-29.29999999999995
 20
217.5
 30
0.0
 11
-26.59999999999991
 21
217.5
 31
0.0
  0
LINE
  5
10300
330
1F
100
AcDbEntity
  8
0
  6
ByBlock
100
AcDbLine
 10
-26.59999999999991
 20
217.5
 30
0.0
 11
-26.59999999999991
 21
220.2
 31
0.0
  0
LINE
  5
10301
330
1F
100
AcDbEntity
  8
0
  6
ByBlock
100
AcDbLine
 10
-26.59999999999991
 20
220.2
 30
0.0
 11
-31.99999999999994
 21
220.2
 31
0.0
  0
LINE
  5
10302
330
1F
100
AcDbEntity
  8
0
  6
ByBlock
100
AcDbLine
 10
-31.99999999999994
 20
220.2
 30
0.0
 11
-31.99999999999994
 21
214.8
 31
0.0
  0
LINE
  5
10303
330
1F
100
AcDbEntity
  8
0
  6
ByBlock
100
AcDbLine
 10
-11.59999999999991
 20
214.8
 30
0.0
 11
-11.59999999999991
 21
217.5
 31
0.0
  0
LINE
  5
10304
330
1F
100
AcDbEntity
  8
0
  6
ByBlock
100
AcDbLine
 10
-16.99999999999994
 20
214.8
 30
0.0
 11
-11.59999999999991
 21
214.8
 31
0.0
  0
LINE
  5
10305
330
1F
100
AcDbEntity
  8
0
  6
ByBlock
100
AcDbLine
 10
-14.29999999999995
 20
217.5
 30
0.0
 11
-11.59999999999991
 21
217.5
 31
0.0
  0
LINE
  5
10306
330
1F
100
AcDbEntity
  8
0
  6
ByBlock
100
AcDbLine
 10
-11.59999999999991
 20
217.5
 30
0.0
 11
-11.59999999999991
 21
220.2
 31
0.0
  0
LINE
  5
10307
330
1F
100
AcDbEntity
  8
0
  6
ByBlock
100
AcDbLine
 10
-11.59999999999991
 20
220.2
 30
0.0
 11
-16.99999999999994
 21
220.2
 31
0.0
  0
LINE
  5
10308
330
1F
100
AcDbEntity
  8
0
  6
ByBlock
100
AcDbLine
 10
-16.99999999999994
 20
220.2
 30
0.0
 11
-16.99999999999994
 21
214.8
 31
0.0
  0
LINE
  5
10309
330
1F
100
AcDbEntity
  8
0
  6
ByBlock
100
AcDbLine
 10
-11.59999999999991
 20
199.8
 30
0.0
 11
-11.59999999999991
 21
202.5
 31
0.0
  0
LINE
  5
1030A
330
1F
100
AcDbEntity
  8
0
  6
ByBlock
100
AcDbLine
 10
-16.99999999999994
 20
199.8
 30
0.0
 11
-11.59999999999991
 21
199.8
 31
0.0
  0
LINE
  5
1030B
330
1F
100
AcDbEntity
  8
0
  6
ByBlock
100
AcDbLine
 10
-14.29999999999995
 20
202.5
 30
0.0
 11
-11.59999999999991
 21
202.5
 31
0.0
  0
LINE
  5
1030C
330
1F
100
AcDbEntity
  8
0
  6
ByBlock
100
AcDbLine
 10
-11.59999999999991
 20
202.5
 30
0.0
 11
-11.59999999999991
 21
205.2
 31
0.0
  0
LINE
  5
1030D
330
1F
100
AcDbEntity
  8
0
  6
ByBlock
100
AcDbLine
 10
-11.59999999999991
 20
205.2
 30
0.0
 11
-16.99999999999994
 21
205.2
 31
0.0
  0
LINE
  5
1030E
330
1F
100
AcDbEntity
  8
0
  6
ByBlock
100
AcDbLine
 10
-16.99999999999994
 20
205.2
 30
0.0
 11
-16.99999999999994
 21
199.8
 31
0.0
  0
LINE
  5
1030F
330
1F
100
AcDbEntity
  8
0
100
AcDbLine
 10
-139.3646027381781
 20
233.125
 30
0.0
 11
-87.99999999999994
 21
233.125
 31
0.0
  0
ARC
  5
10310
330
1F
100
AcDbEntity
  8
0
100
AcDbCircle
 10
-87.99999999999994
 20
234.5
 30
0.0
 40
1.374999999999993
100
AcDbArc
 50
270.0
 51
90.0
  0
LINE
  5
10311
330
1F
100
AcDbEntity
  8
0
100
AcDbLine
 10
-87.99999999999994
 20
235.875
 30
0.0
 11
-139.3646027381781
 21
235.875
 31
0.0
  0
ARC
  5
10312
330
1F
100
AcDbEntity
  8
0
100
AcDbCircle
 10
-139.3646027381781
 20
234.5
 30
0.0
 40
1.374999999999993
100
AcDbArc
 50
90.0
 51
270.0
  0
ARC
  5
10313
330
1F
100
AcDbEntity
  8
0
100
AcDbCircle
 10
-81.36460273817809
 20
234.5
 30
0.0
 40
1.374999999999993
100
AcDbArc
 50
90.0
 51
270.0
  0
ARC
  5
10314
330
1F
100
AcDbEntity
  8
0
100
AcDbCircle
 10
-81.36460273817809
 20
185.5
 30
0.0
 40
1.375
100
AcDbArc
 50
90.0
 51
270.0
  0
LINE
  5
10315
330
1F
100
AcDbEntity
  8
0
100
AcDbLine
 10
-139.3646027381781
 20
184.125
 30
0.0
 11
-87.99999999999994
 21
184.125
 31
0.0
  0
ARC
  5
10316
330
1F
100
AcDbEntity
  8
0
100
AcDbCircle
 10
-87.99999999999994
 20
185.5
 30
0.0
 40
1.375
100
AcDbArc
 50
270.0
 51
90.0
  0
LINE
  5
10317
330
1F
100
AcDbEntity
  8
0
100
AcDbLine
 10
-87.99999999999994
 20
186.875
 30
0.0
 11
-139.3646027381781
 21
186.875
 31
0.0
  0
ARC
  5
10318
330
1F
100
AcDbEntity
  8
0
100
AcDbCircle
 10
-139.3646027381781
 20
185.5
 30
0.0
 40
1.375
100
AcDbArc
 50
90.0
 51
270.0
  0
LINE
  5
10319
330
1F
100
AcDbEntity
  8
0
  6
ByBlock
100
AcDbLine
 10
-121.3472099676662
 20
240.875
 30
0.0
 11
-97.99999999999994
 21
240.875
 31
0.0
  0
LINE
  5
1031A
330
1F
100
AcDbEntity
  8
0
  6
ByBlock
100
AcDbLine
 10
-97.99999999999994
 20
250.875
 30
0.0
 11
-121.3472099676662
 21
250.875
 31
0.0
  0
LINE
  5
1031B
330
1F
100
AcDbEntity
  8
0
  6
ByBlock
100
AcDbLine
 10
-121.3472099676662
 20
179.125
 30
0.0
 11
-97.99999999999994
 21
179.125
 31
0.0
  0
LINE
  5
1031C
330
1F
100
AcDbEntity
  8
0
  6
ByBlock
100
AcDbLine
 10
-97.99999999999994
 20
169.125
 30
0.0
 11
-121.3472099676662
 21
169.125
 31
0.0
  0
ARC
  5
1031D
330
1F
100
AcDbEntity
  8
0
  6
ByBlock
100
AcDbCircle
 10
-121.3472099676662
 20
245.875
 30
0.0
 40
5.0
100
AcDbArc
 50
90.0
 51
270.0
  0
ARC
  5
1031E
330
1F
100
AcDbEntity
  8
0
  6
ByBlock
100
AcDbCircle
 10
-97.99999999999994
 20
245.875
 30
0.0
 40
5.0
100
AcDbArc
 50
270.0
 51
90.0
  0
ARC
  5
1031F
330
1F
100
AcDbEntity
  8
0
  6
ByBlock
100
AcDbCircle
 10
-97.99999999999994
 20
174.125
 30
0.0
 40
5.0
100
AcDbArc
 50
270.0
 51
90.0
  0
ARC
  5
10320
330
1F
100
AcDbEntity
  8
0
  6
ByBlock
100
AcDbCircle
 10
-121.3472099676662
 20
174.125
 30
0.0
 40
5.0
100
AcDbArc
 50
90.0
 51
270.0
  0
LINE
  5
10321
330
1F
100
AcDbEntity
  8
0
100
AcDbLine
 10
-81.36460273817809
 20
184.125
 30
0.0
 11
-29.99999999999994
 21
184.125
 31
0.0
  0
ARC
  5
10322
330
1F
100
AcDbEntity
  8
0
100
AcDbCircle
 10
-29.99999999999994
 20
185.5
 30
0.0
 40
1.375
100
AcDbArc
 50
270.0
 51
90.0
  0
LINE
  5
10323
330
1F
100
AcDbEntity
  8
0
100
AcDbLine
 10
-29.99999999999994
 20
186.875
 30
0.0
 11
-81.36460273817809
 21
186.875
 31
0.0
  0
LINE
  5
10324
330
1F
100
AcDbEntity
  8
0
100
AcDbLine
 10
-81.36460273817809
 20
233.125
 30
0.0
 11
-29.99999999999994
 21
233.125
 31
0.0
  0
ARC
  5
10325
330
1F
100
AcDbEntity
  8
0
100
AcDbCircle
 10
-29.99999999999994
 20
234.5
 30
0.0
 40
1.374999999999993
100
AcDbArc
 50
270.0
 51
90.0
  0
LINE
  5
10326
330
1F
100
AcDbEntity
  8
0
100
AcDbLine
 10
-29.99999999999994
 20
235.875
 30
0.0
 11
-81.36460273817809
 21
235.875
 31
0.0
  0
LINE
  5
10327
330
1F
100
AcDbEntity
  8
0
  6
ByBlock
100
AcDbLine
 10
-11.59999999999991
 20
217.0530155508048
 30
0.0
 11
-11.59999999999991
 21
219.7530155508048
 31
0.0
  0
LINE
  5
10328
330
1F
100
AcDbEntity
  8
0
  6
ByBlock
100
AcDbLine
 10
-14.29999999999995
 20
217.5
 30
0.0
 11
-11.59999999999991
 21
217.5
 31
0.0
  0
CIRCLE
  5
1032B
330
1F
100
AcDbEntity
  8
0
100
AcDbCircle
 10
-72.99999999999994
 20
254.4999999999999
 30
0.0
 40
6.499999999999986
  0
CIRCLE
  5
1032C
330
1F
100
AcDbEntity
  8
0
100
AcDbCircle
 10
-72.99999999999994
 20
165.4999999999999
 30
0.0
 40
6.499999999999986
  0
ARC
  5
10330
102
{ACAD_REACTORS
102
}
330
1F
100
AcDbEntity
  8
0
100
AcDbCircle
 10
-331.488180791171
 20
29.99999999999993
 30
0.0
 40
9.999999999999932
100
AcDbArc
 50
179.9999999999996
 51
269.999999999999
  0
LINE
  5
10331
330
1F
100
AcDbEntity
  8
0
100
AcDbLine
 10
-341.488180791171
 20
30.0
 30
0.0
 11
-341.488180791171
 21
110.0
 31
0.0
  0
ARC
  5
10332
330
1F
100
AcDbEntity
  8
0
100
AcDbCircle
 10
-331.488180791171
 20
110.0
 30
0.0
 40
9.999999999999986
100
AcDbArc
 50
90.0
 51
180.0000000000001
  0
LINE
  5
10333
102
{ACAD_REACTORS
102
}
330
1F
100
AcDbEntity
  8
0
100
AcDbLine
 10
-331.488180791171
 20
120.0
 30
0.0
 11
-187.846375925481
 21
120.0
 31
0.0
  0
ARC
  5
10334
330
1F
100
AcDbEntity
  8
0
100
AcDbCircle
 10
-187.846375925481
 20
109.9999999999999
 30
0.0
 40
10.00000000000006
100
AcDbArc
 50
359.9999999999997
 51
89.99999999999967
  0
LINE
  5
10335
330
1F
100
AcDbEntity
  8
0
100
AcDbLine
 10
-177.846375925481
 20
109.9999999999999
 30
0.0
 11
-177.8463759254811
 21
29.99999999999989
 31
0.0
  0
ARC
  5
10336
330
1F
100
AcDbEntity
  8
0
100
AcDbCircle
 10
-187.8463759254811
 20
29.99999999999989
 30
0.0
 40
10.0
100
AcDbArc
 50
270.0
 51
0.0
  0
LINE
  5
10337
330
1F
100
AcDbEntity
  8
0
100
AcDbLine
 10
-187.8463759254811
 20
19.99999999999989
 30
0.0
 11
-331.4881807911712
 21
20.0
 31
0.0
  0
ENDSEC
  0
SECTION
  2
OBJECTS
  0
DICTIONARY
  5
C
330
0
100
AcDbDictionary
281
     1
  3
ACAD_DETAILVIEWSTYLE
350
100AE
  3
ACAD_GROUP
350
D
  3
ACAD_IMAGE_VARS
350
1004B
  3
ACAD_LAYOUT
350
10025
  3
ACAD_MATERIAL
350
10028
  3
ACAD_MLEADERSTYLE
350
10047
  3
ACAD_MLINESTYLE
350
17
  3
ACAD_SCALELIST
350
10003
  3
ACAD_SECTIONVIEWSTYLE
350
100AF
  3
ACAD_TABLESTYLE
350
10045
  3
AcDbVariableDictionary
350
100A4
  3
ACDB_RECOMPOSE_DATA
350
10361
  3
APPDATA
350
10049
  0
DICTIONARY
  5
100AE
102
{ACAD_REACTORS
330
C
102
}
330
C
100
AcDbDictionary
281
     1
  0
DICTIONARY
  5
D
330
C
100
AcDbDictionary
281
     1
  0
RASTERVARIABLES
  5
1004B
102
{ACAD_REACTORS
330
C
102
}
330
C
100
AcDbRasterVariables
 90
        0
 70
     1
 71
     1
 72
     1
  0
DICTIONARY
  5
10025
102
{ACAD_REACTORS
330
C
102
}
330
C
100
AcDbDictionary
281
     1
  3
Model
350
10026
  3
Sheet 1
350
10027
  0
DICTIONARY
  5
10028
102
{ACAD_REACTORS
330
C
102
}
330
C
100
AcDbDictionary
281
     1
  3
ByBlock
350
1002A
  3
ByLayer
350
10029
  3
Global
350
1002B
  0
DICTIONARY
  5
10047
102
{ACAD_REACTORS
330
C
102
}
330
C
100
AcDbDictionary
281
     1
  3
Standard
350
10048
  0
DICTIONARY
  5
17
330
C
100
AcDbDictionary
281
     1
  3
Standard
350
10002
  0
DICTIONARY
  5
10003
102
{ACAD_REACTORS
330
C
102
}
330
C
100
AcDbDictionary
281
     1
  3
A0
350
10004
  3
A1
350
10005
  3
A2
350
10006
  3
A3
350
10007
  3
A4
350
10008
  3
A5
350
10009
  3
A6
350
1000A
  3
A7
350
1000B
  3
A8
350
1000C
  3
A9
350
1000D
  3
B0
350
1000E
  3
B1
350
1000F
  3
B2
350
10010
  3
B3
350
10011
  3
B4
350
10012
  3
B5
350
10013
  3
B6
350
10014
  3
B7
350
10015
  3
B8
350
10016
  3
B9
350
10017
  3
C0
350
10018
  3
C1
350
10019
  3
C2
350
1001A
  3
C3
350
1001B
  3
C4
350
1001C
  3
C5
350
1001D
  3
C6
350
1001E
  3
C7
350
1001F
  3
C8
350
10020
  3
C9
350
10021
  3
D0
350
10022
  3
D1
350
10023
  3
D2
350
10024
  0
DICTIONARY
  5
100AF
102
{ACAD_REACTORS
330
C
102
}
330
C
100
AcDbDictionary
281
     1
  0
DICTIONARY
  5
10045
102
{ACAD_REACTORS
330
C
102
}
330
C
100
AcDbDictionary
281
     1
  3
Standard
350
10046
  0
DICTIONARY
  5
100A4
102
{ACAD_REACTORS
330
C
102
}
330
C
100
AcDbDictionary
281
     1
  3
CANNOSCALE
350
100A5
  3
CMLEADERSTYLE
350
100AC
  3
CTABLESTYLE
350
100AB
  3
MSLTSCALE
350
100AD
  3
XCLIPFRAME
350
100DA
  0
XRECORD
  5
10361
102
{ACAD_REACTORS
330
C
102
}
330
C
100
AcDbXrecord
280
     1
 90
        1
330
10046
  0
DICTIONARY
  5
10049
102
{ACAD_REACTORS
330
C
102
}
330
C
100
AcDbDictionary
281
     1
  0
LAYOUT
  5
10026
102
{ACAD_REACTORS
330
10025
102
}
330
10025
100
AcDbPlotSettings
  1

  2
none_device
  4
na-letter
  6

 40
6.35
 41
6.35
 42
6.35
 43
14.11111111111111
 44
215.9
 45
279.4
 46
0.0
 47
0.0
 48
0.0
 49
0.0
140
0.0
141
0.0
142
1.0
143
2.21959459445662
 70
  1712
 72
     0
 73
     0
 74
     0
  7

 75
     0
 76
     0
 77
     2
 78
   300
147
0.4505327245333333
148
-39.40881537143161
149
0.0
100
AcDbLayout
  1
Model
 70
     1
 71
     0
 10
0.0
 20
0.0
 11
12.0
 21
9.0
 12
0.0
 22
0.0
 32
0.0
 14
-420.0
 24
0.0
 34
0.0
 15
0.0000000000000568
 25
280.0
 35
0.0
146
0.0
 13
0.0
 23
0.0
 33
0.0
 16
1.0
 26
0.0
 36
0.0
 17
0.0
 27
1.0
 37
0.0
 76
     0
330
1F
331
10001
  0
LAYOUT
  5
10027
102
{ACAD_REACTORS
330
10025
102
}
330
10025
100
AcDbPlotSettings
  1

  2
none_device
  4

  6

 40
0.0
 41
0.0
 42
0.0
 43
0.0
 44
0.0
 45
0.0
 46
0.0
 47
0.0
 48
0.0
 49
0.0
140
0.0
141
0.0
142
1.0
143
1.0
 70
   688
 72
     0
 73
     0
 74
     5
  7

 75
    16
 76
     0
 77
     2
 78
   300
147
1.0
148
0.0
149
0.0
100
AcDbLayout
  1
Sheet 1
 70
     1
 71
     1
 10
0.0
 20
0.0
 11
0.0
 21
0.0
 12
0.0
 22
0.0
 32
0.0
 14
1.000000000000000E+20
 24
1.000000000000000E+20
 34
1.000000000000000E+20
 15
-1.000000000000000E+20
 25
-1.000000000000000E+20
 35
-1.000000000000000E+20
146
0.0
 13
0.0
 23
0.0
 33
0.0
 16
1.0
 26
0.0
 36
0.0
 17
0.0
 27
1.0
 37
0.0
 76
     0
330
1B
  0
MATERIAL
  5
1002A
102
{ACAD_REACTORS
330
10028
102
}
330
10028
100
AcDbMaterial
  1
ByBlock
  0
MATERIAL
  5
10029
102
{ACAD_REACTORS
330
10028
102
}
330
10028
100
AcDbMaterial
  1
ByLayer
  0
MATERIAL
  5
1002B
102
{ACAD_REACTORS
330
10028
102
}
330
10028
100
AcDbMaterial
  1
Global
  0
MLEADERSTYLE
  5
10048
102
{ACAD_REACTORS
330
10047
102
}
330
10047
100
AcDbMLeaderStyle
170
     2
171
     1
172
     0
 90
        2
 40
0.0
 41
0.0
173
     1
 91
-1056964608
340
14
 92
       -2
290
     1
 42
0.09
291
     1
 43
0.36
  3
Standard
341
0
 44
0.18
300

342
11
174
     1
178
     6
175
     1
176
     0
 93
-1056964608
 45
0.18
292
     0
297
     0
 46
0.18
343
0
 94
-1056964608
 47
1.0
 49
1.0
140
1.0
293
     1
141
0.0
294
     1
177
     0
142
1.0
295
     0
296
     0
143
0.125
1001
ACAD_MLEADERVER
1070
     2
  0
MLINESTYLE
  5
10002
102
{ACAD_REACTORS
330
17
102
}
330
17
100
AcDbMlineStyle
  2
Standard
 70
     0
  3

 62
   256
 51
90.0
 52
90.0
 71
     2
 49
0.5
 62
   256
  6
BYLAYER
 49
-0.5
 62
   256
  6
BYLAYER
  0
SCALE
  5
10004
102
{ACAD_REACTORS
330
10003
102
}
330
10003
100
AcDbScale
 70
     0
300
1:1
140
1.0
141
1.0
290
     1
  0
SCALE
  5
10005
102
{ACAD_REACTORS
330
10003
102
}
330
10003
100
AcDbScale
 70
     0
300
1:2
140
1.0
141
2.0
290
     0
  0
SCALE
  5
10006
102
{ACAD_REACTORS
330
10003
102
}
330
10003
100
AcDbScale
 70
     0
300
1:4
140
1.0
141
4.0
290
     0
  0
SCALE
  5
10007
102
{ACAD_REACTORS
330
10003
102
}
330
10003
100
AcDbScale
 70
     0
300
1:5
140
1.0
141
5.0
290
     0
  0
SCALE
  5
10008
102
{ACAD_REACTORS
330
10003
102
}
330
10003
100
AcDbScale
 70
     0
300
1:8
140
1.0
141
8.0
290
     0
  0
SCALE
  5
10009
102
{ACAD_REACTORS
330
10003
102
}
330
10003
100
AcDbScale
 70
     0
300
1:10
140
1.0
141
10.0
290
     0
  0
SCALE
  5
1000A
102
{ACAD_REACTORS
330
10003
102
}
330
10003
100
AcDbScale
 70
     0
300
1:16
140
1.0
141
16.0
290
     0
  0
SCALE
  5
1000B
102
{ACAD_REACTORS
330
10003
102
}
330
10003
100
AcDbScale
 70
     0
300
1:20
140
1.0
141
20.0
290
     0
  0
SCALE
  5
1000C
102
{ACAD_REACTORS
330
10003
102
}
330
10003
100
AcDbScale
 70
     0
300
1:30
140
1.0
141
30.0
290
     0
  0
SCALE
  5
1000D
102
{ACAD_REACTORS
330
10003
102
}
330
10003
100
AcDbScale
 70
     0
300
1:40
140
1.0
141
40.0
290
     0
  0
SCALE
  5
1000E
102
{ACAD_REACTORS
330
10003
102
}
330
10003
100
AcDbScale
 70
     0
300
1:50
140
1.0
141
50.0
290
     0
  0
SCALE
  5
1000F
102
{ACAD_REACTORS
330
10003
102
}
330
10003
100
AcDbScale
 70
     0
300
1:100
140
1.0
141
100.0
290
     0
  0
SCALE
  5
10010
102
{ACAD_REACTORS
330
10003
102
}
330
10003
100
AcDbScale
 70
     0
300
2:1
140
2.0
141
1.0
290
     0
  0
SCALE
  5
10011
102
{ACAD_REACTORS
330
10003
102
}
330
10003
100
AcDbScale
 70
     0
300
4:1
140
4.0
141
1.0
290
     0
  0
SCALE
  5
10012
102
{ACAD_REACTORS
330
10003
102
}
330
10003
100
AcDbScale
 70
     0
300
8:1
140
8.0
141
1.0
290
     0
  0
SCALE
  5
10013
102
{ACAD_REACTORS
330
10003
102
}
330
10003
100
AcDbScale
 70
     0
300
10:1
140
10.0
141
1.0
290
     0
  0
SCALE
  5
10014
102
{ACAD_REACTORS
330
10003
102
}
330
10003
100
AcDbScale
 70
     0
300
100:1
140
100.0
141
1.0
290
     0
  0
SCALE
  5
10015
102
{ACAD_REACTORS
330
10003
102
}
330
10003
100
AcDbScale
 70
     0
300
1/128" = 1'-0"
140
0.0078125
141
12.0
290
     0
  0
SCALE
  5
10016
102
{ACAD_REACTORS
330
10003
102
}
330
10003
100
AcDbScale
 70
     0
300
1/64" = 1'-0"
140
0.015625
141
12.0
290
     0
  0
SCALE
  5
10017
102
{ACAD_REACTORS
330
10003
102
}
330
10003
100
AcDbScale
 70
     0
300
1/32" = 1'-0"
140
0.03125
141
12.0
290
     0
  0
SCALE
  5
10018
102
{ACAD_REACTORS
330
10003
102
}
330
10003
100
AcDbScale
 70
     0
300
1/16" = 1'-0"
140
0.0625
141
12.0
290
     0
  0
SCALE
  5
10019
102
{ACAD_REACTORS
330
10003
102
}
330
10003
100
AcDbScale
 70
     0
300
3/32" = 1'-0"
140
0.09375
141
12.0
290
     0
  0
SCALE
  5
1001A
102
{ACAD_REACTORS
330
10003
102
}
330
10003
100
AcDbScale
 70
     0
300
1/8" = 1'-0"
140
0.125
141
12.0
290
     0
  0
SCALE
  5
1001B
102
{ACAD_REACTORS
330
10003
102
}
330
10003
100
AcDbScale
 70
     0
300
3/16" = 1'-0"
140
0.1875
141
12.0
290
     0
  0
SCALE
  5
1001C
102
{ACAD_REACTORS
330
10003
102
}
330
10003
100
AcDbScale
 70
     0
300
1/4" = 1'-0"
140
0.25
141
12.0
290
     0
  0
SCALE
  5
1001D
102
{ACAD_REACTORS
330
10003
102
}
330
10003
100
AcDbScale
 70
     0
300
3/8" = 1'-0"
140
0.375
141
12.0
290
     0
  0
SCALE
  5
1001E
102
{ACAD_REACTORS
330
10003
102
}
330
10003
100
AcDbScale
 70
     0
300
1/2" = 1'-0"
140
0.5
141
12.0
290
     0
  0
SCALE
  5
1001F
102
{ACAD_REACTORS
330
10003
102
}
330
10003
100
AcDbScale
 70
     0
300
3/4" = 1'-0"
140
0.75
141
12.0
290
     0
  0
SCALE
  5
10020
102
{ACAD_REACTORS
330
10003
102
}
330
10003
100
AcDbScale
 70
     0
300
1" = 1'-0"
140
1.0
141
12.0
290
     0
  0
SCALE
  5
10021
102
{ACAD_REACTORS
330
10003
102
}
330
10003
100
AcDbScale
 70
     0
300
1-1/2" = 1'-0"
140
1.5
141
12.0
290
     0
  0
SCALE
  5
10022
102
{ACAD_REACTORS
330
10003
102
}
330
10003
100
AcDbScale
 70
     0
300
3" = 1'-0"
140
3.0
141
12.0
290
     0
  0
SCALE
  5
10023
102
{ACAD_REACTORS
330
10003
102
}
330
10003
100
AcDbScale
 70
     0
300
6" = 1'-0"
140
6.0
141
12.0
290
     0
  0
SCALE
  5
10024
102
{ACAD_REACTORS
330
10003
102
}
330
10003
100
AcDbScale
 70
     0
300
1'-0" = 1'-0"
140
12.0
141
12.0
290
     0
  0
TABLESTYLE
  5
10046
102
{ACAD_REACTORS
330
10045
102
}
102
{ACAD_XDICTIONARY
360
1035E
102
}
330
10045
100
AcDbTableStyle
  3
Standard
 70
     0
 71
     0
 40
0.06
 41
0.06
280
     0
281
     0
  7
STANDARD
140
0.18
170
     2
 62
     0
 63
   257
283
     0
274
    -2
284
     1
 64
     0
275
    -2
285
     1
 65
     0
276
    -2
286
     1
 66
     0
277
    -2
287
     1
 67
     0
278
    -2
288
     1
 68
     0
279
    -2
289
     1
 69
     0
  7
STANDARD
140
0.25
170
     5
 62
     0
 63
   257
283
     0
274
    -2
284
     1
 64
     0
275
    -2
285
     1
 65
     0
276
    -2
286
     1
 66
     0
277
    -2
287
     1
 67
     0
278
    -2
288
     1
 68
     0
279
    -2
289
     1
 69
     0
  7
STANDARD
140
0.18
170
     5
 62
     0
 63
   257
283
     0
274
    -2
284
     1
 64
     0
275
    -2
285
     1
 65
     0
276
    -2
286
     1
 66
     0
277
    -2
287
     1
 67
     0
278
    -2
288
     1
 68
     0
279
    -2
289
     1
 69
     0
  0
DICTIONARYVAR
  5
100A5
102
{ACAD_REACTORS
330
100A4
102
}
330
100A4
100
DictionaryVariables
280
     0
  1
1:1
  0
DICTIONARYVAR
  5
100AC
102
{ACAD_REACTORS
330
100A4
102
}
330
100A4
100
DictionaryVariables
280
     0
  1
Standard
  0
DICTIONARYVAR
  5
100AB
102
{ACAD_REACTORS
330
100A4
102
}
330
100A4
100
DictionaryVariables
280
     0
  1
Standard
  0
DICTIONARYVAR
  5
100AD
102
{ACAD_REACTORS
330
100A4
102
}
330
100A4
100
DictionaryVariables
280
     0
  1
0
  0
DICTIONARYVAR
  5
100DA
102
{ACAD_REACTORS
330
100A4
102
}
330
100A4
100
DictionaryVariables
280
     0
  1
0
  0
DICTIONARY
  5
1035E
330
10046
100
AcDbDictionary
280
     1
281
     1
  3
ACAD_ROUNDTRIP_2008_TABLESTYLE_CELLSTYLEMAP
360
10360
  3
ACAD_XREC_ROUNDTRIP
360
1035F
  0
CELLSTYLEMAP
  5
10360
102
{ACAD_REACTORS
330
1035E
102
}
330
1035E
100
AcDbCellStyleMap
 90
        3
300
CELLSTYLE
  1
TABLEFORMAT_BEGIN
 90
        5
170
     1
 91
        0
 92
    32768
 62
   257
 93
        1
300
CONTENTFORMAT
  1
CONTENTFORMAT_BEGIN
 90
        0
 91
        0
 92
        4
 93
        0
300

 40
0.0
140
1.0
 94
        5
 62
     0
340
11
144
0.25
309
CONTENTFORMAT_END
171
     1
301
MARGIN
  1
CELLMARGIN_BEGIN
 40
0.06
 40
0.06
 40
0.06
 40
0.06
 40
0.06
 40
0.06
309
CELLMARGIN_END
 94
        6
 95
        1
302
GRIDFORMAT
  1
GRIDFORMAT_BEGIN
 90
        0
 91
        1
 62
     0
 92
       -2
340
14
 93
        0
 40
0.045
309
GRIDFORMAT_END
 95
        2
302
GRIDFORMAT
  1
GRIDFORMAT_BEGIN
 90
        0
 91
        1
 62
     0
 92
       -2
340
14
 93
        0
 40
0.045
309
GRIDFORMAT_END
 95
        4
302
GRIDFORMAT
  1
GRIDFORMAT_BEGIN
 90
        0
 91
        1
 62
     0
 92
       -2
340
14
 93
        0
 40
0.045
309
GRIDFORMAT_END
 95
        8
302
GRIDFORMAT
  1
GRIDFORMAT_BEGIN
 90
        0
 91
        1
 62
     0
 92
       -2
340
14
 93
        0
 40
0.045
309
GRIDFORMAT_END
 95
       16
302
GRIDFORMAT
  1
GRIDFORMAT_BEGIN
 90
        0
 91
        1
 62
     0
 92
       -2
340
14
 93
        0
 40
0.045
309
GRIDFORMAT_END
 95
       32
302
GRIDFORMAT
  1
GRIDFORMAT_BEGIN
 90
        0
 91
        1
 62
     0
 92
       -2
340
14
 93
        0
 40
0.045
309
GRIDFORMAT_END
309
TABLEFORMAT_END
  1
CELLSTYLE_BEGIN
 90
        1
 91
        1
300
_TITLE
309
CELLSTYLE_END
300
CELLSTYLE
  1
TABLEFORMAT_BEGIN
 90
        5
170
     1
 91
        0
 92
        0
 62
   257
 93
        1
300
CONTENTFORMAT
  1
CONTENTFORMAT_BEGIN
 90
        0
 91
        0
 92
        4
 93
        0
300

 40
0.0
140
1.0
 94
        5
 62
     0
340
11
144
0.18
309
CONTENTFORMAT_END
171
     1
301
MARGIN
  1
CELLMARGIN_BEGIN
 40
0.06
 40
0.06
 40
0.06
 40
0.06
 40
0.06
 40
0.06
309
CELLMARGIN_END
 94
        6
 95
        1
302
GRIDFORMAT
  1
GRIDFORMAT_BEGIN
 90
        0
 91
        1
 62
     0
 92
       -2
340
14
 93
        0
 40
0.045
309
GRIDFORMAT_END
 95
        2
302
GRIDFORMAT
  1
GRIDFORMAT_BEGIN
 90
        0
 91
        1
 62
     0
 92
       -2
340
14
 93
        0
 40
0.045
309
GRIDFORMAT_END
 95
        4
302
GRIDFORMAT
  1
GRIDFORMAT_BEGIN
 90
        0
 91
        1
 62
     0
 92
       -2
340
14
 93
        0
 40
0.045
309
GRIDFORMAT_END
 95
        8
302
GRIDFORMAT
  1
GRIDFORMAT_BEGIN
 90
        0
 91
        1
 62
     0
 92
       -2
340
14
 93
        0
 40
0.045
309
GRIDFORMAT_END
 95
       16
302
GRIDFORMAT
  1
GRIDFORMAT_BEGIN
 90
        0
 91
        1
 62
     0
 92
       -2
340
14
 93
        0
 40
0.045
309
GRIDFORMAT_END
 95
       32
302
GRIDFORMAT
  1
GRIDFORMAT_BEGIN
 90
        0
 91
        1
 62
     0
 92
       -2
340
14
 93
        0
 40
0.045
309
GRIDFORMAT_END
309
TABLEFORMAT_END
  1
CELLSTYLE_BEGIN
 90
        2
 91
        1
300
_HEADER
309
CELLSTYLE_END
300
CELLSTYLE
  1
TABLEFORMAT_BEGIN
 90
        5
170
     1
 91
        0
 92
        0
 62
   257
 93
        1
300
CONTENTFORMAT
  1
CONTENTFORMAT_BEGIN
 90
        0
 91
        0
 92
        4
 93
        0
300

 40
0.0
140
1.0
 94
        2
 62
     0
340
11
144
0.18
309
CONTENTFORMAT_END
171
     1
301
MARGIN
  1
CELLMARGIN_BEGIN
 40
0.06
 40
0.06
 40
0.06
 40
0.06
 40
0.06
 40
0.06
309
CELLMARGIN_END
 94
        6
 95
        1
302
GRIDFORMAT
  1
GRIDFORMAT_BEGIN
 90
        0
 91
        1
 62
     0
 92
       -2
340
14
 93
        0
 40
0.045
309
GRIDFORMAT_END
 95
        2
302
GRIDFORMAT
  1
GRIDFORMAT_BEGIN
 90
        0
 91
        1
 62
     0
 92
       -2
340
14
 93
        0
 40
0.045
309
GRIDFORMAT_END
 95
        4
302
GRIDFORMAT
  1
GRIDFORMAT_BEGIN
 90
        0
 91
        1
 62
     0
 92
       -2
340
14
 93
        0
 40
0.045
309
GRIDFORMAT_END
 95
        8
302
GRIDFORMAT
  1
GRIDFORMAT_BEGIN
 90
        0
 91
        1
 62
     0
 92
       -2
340
14
 93
        0
 40
0.045
309
GRIDFORMAT_END
 95
       16
302
GRIDFORMAT
  1
GRIDFORMAT_BEGIN
 90
        0
 91
        1
 62
     0
 92
       -2
340
14
 93
        0
 40
0.045
309
GRIDFORMAT_END
 95
       32
302
GRIDFORMAT
  1
GRIDFORMAT_BEGIN
 90
        0
 91
        1
 62
     0
 92
       -2
340
14
 93
        0
 40
0.045
309
GRIDFORMAT_END
309
TABLEFORMAT_END
  1
CELLSTYLE_BEGIN
 90
        3
 91
        2
300
_DATA
309
CELLSTYLE_END
  0
XRECORD
  5
1035F
102
{ACAD_REACTORS
330
1035E
102
}
330
1035E
100
AcDbXrecord
280
     1
102
ACAD_ROUNDTRIP_PRE2007_TABLESTYLE
 90
        4
 91
        0
  1

 92
        4
 93
        0
  2

 94
        4
 95
        0
  3

  0
ENDSEC
  0
EOF
